<svg xmlns="http://www.w3.org/2000/svg" viewBox="0 0 16 16">
  <path d="M15.7914 9.8C15.2925 9.1 14.095 8.7 12.1991 8.7C11.4008 8.7 10.7022 8.8 10.4029 8.8C9.60458 8.3 9.10564 7.5 8.50691 6.3C9.00585 4.7 9.70437 2 8.80628 0.7C8.40713 0.2 7.90819 0 7.30946 0C6.71073 0 6.21179 0.2 5.91243 0.7C5.11413 1.9 6.01222 4.8 6.71073 6.3C6.21179 7.8 5.61307 9.2 5.01434 10.3H4.91455C3.01858 11.1 0.424098 12.3 0.024947 13.8C-0.0748409 14.3 0.124735 14.9 0.623674 15.3C1.12261 15.8 1.52176 16 2.12049 16C4.01646 16 5.61307 13.2 6.41137 11.5C7.10988 11.3 9.405 10.6 10.1035 10.5C11.301 11.8 12.8976 12.6 14.095 12.6C14.9931 12.6 15.6916 12.1 15.8912 11.3C16.0908 10.7 15.991 10.2 15.7914 9.8ZM14.4942 10.6C14.4942 10.8 14.2946 11 13.8955 11C13.1969 11 12.0993 10.5 11.5005 10C11.7999 10 12.1991 10 12.4984 10C13.8955 10 14.2946 10.2 14.3944 10.4C14.4942 10.4 14.4942 10.5 14.4942 10.6ZM7.40925 4.2C6.91031 3 6.81052 1.8 7.10988 1.3C7.20967 1.2 7.30946 1.1 7.40925 1.1C7.50904 1.1 7.60882 1.1 7.70861 1.3C8.00797 1.8 7.70861 3.2 7.40925 4.2ZM8.00797 8C8.20755 8.3 8.6067 8.8 9.00585 9.3C8.70649 9.3 8.10776 9.5 7.60882 9.6C7.50904 9.6 7.30946 9.7 7.20967 9.7C7.50904 9.3 7.8084 8.5 8.00797 8ZM1.42198 14.2C1.52176 13.6 2.91879 12.6 4.31582 11.9C3.51752 13.2 2.41986 14.5 1.72134 14.5C1.62155 14.5 1.52176 14.5 1.52176 14.4C1.42198 14.4 1.42198 14.3 1.42198 14.2Z"/>
</svg>
