<svg xmlns="http://www.w3.org/2000/svg" viewBox="0 0 16 16">
  <path d="M12 0C13.1 0 14 0.900028 14 2V6.0127C13.5304 6.06048 13.0738 6.26478 12.7139 6.625L11.5225 7.81543L11.5215 7.81445L7.33496 12H3.5C3.22816 12 3.00006 12.225 3 12.5C3 12.775 3.22813 13 3.5 13H6.53906C6.51114 13.0754 6.48879 13.1532 6.47266 13.2324L6.47168 13.2354L6.02539 15.4678L6.02441 15.4688C5.9878 15.6532 5.9944 15.8324 6.03223 16H2C0.89531 16 0 15.1046 0 14V2C3.24622e-05 0.895342 0.89533 0 2 0H12ZM13.7715 11.4785L9.85645 15.3936C9.77833 15.4724 9.67743 15.5265 9.56934 15.5479L7.33691 15.9941C7.14144 16.0332 6.96679 15.8597 7.00586 15.6631L7.45215 13.4316C7.4743 13.323 7.52736 13.2222 7.60547 13.1436L11.5215 9.22852L13.7715 11.4785ZM13.4209 7.33105C13.8599 6.89167 14.5727 6.89167 15.0127 7.33105L15.6719 7.99023C16.1093 8.42774 16.1087 9.1408 15.6709 9.58203L14.4795 10.7734L12.2295 8.52344L13.4209 7.33105ZM5.99121 2.33398C3.83095 2.77522 2.34759 5.06861 3.28809 7.4873C3.63559 8.38574 4.35841 9.10855 5.25684 9.45605C7.67557 10.3966 9.96956 8.9123 10.4102 6.75293H5.99121V2.33398ZM6.99121 5.75293H10.7441C10.744 3.67965 9.06547 2.00007 6.99121 2V5.75293Z"/>
</svg>
