<svg xmlns="http://www.w3.org/2000/svg" viewBox="0 0 16 16">
  <path d="M13 0C14.1 0 15 0.900028 15 2V14C15 15.1 14.1 16 13 16H3C1.89531 16 1 15.1046 1 14V2C1.00003 0.895342 1.89533 0 3 0H13ZM4.5 12C4.22816 12 4.00006 12.225 4 12.5C4 12.775 4.22813 13 4.5 13H11.5C11.775 13 12 12.7734 12 12.5C11.9999 12.2265 11.7734 12 11.5 12H4.5ZM6.99121 2.33398C4.83095 2.77522 3.34759 5.06861 4.28809 7.4873C4.63559 8.38574 5.35841 9.10855 6.25684 9.45605C8.67557 10.3966 10.9696 8.9123 11.4102 6.75293H6.99121V2.33398ZM7.99121 5.75293H11.7441C11.744 3.67965 10.0655 2.00007 7.99121 2V5.75293Z"/>
</svg>
